<?xml version="1.0" encoding="UTF-8" standalone="no"?>
<!DOCTYPE svg PUBLIC "-//W3C//DTD SVG 1.1//EN"
 "http://www.w3.org/Graphics/SVG/1.1/DTD/svg11.dtd">
<!-- Generated by graphviz version 2.38.0 (20140413.2041)
 -->
<!-- Title: BST Pages: 1 -->
<svg width="744pt" height="744pt"
 viewBox="0.00 0.00 744.20 744.00" xmlns="http://www.w3.org/2000/svg" xmlns:xlink="http://www.w3.org/1999/xlink">
<g id="graph0" class="graph" transform="scale(1 1) rotate(0) translate(4 740)">
<title>BST</title>
<polygon fill="white" stroke="none" points="-4,4 -4,-740 740.198,-740 740.198,4 -4,4"/>
<!-- ProgramNode_292938459 -->
<g id="node1" class="node"><title>ProgramNode_292938459</title>
<g id="a_node1"><a xlink:title="Just node">
<ellipse fill="none" stroke="black" cx="302.54" cy="-718" rx="54.6905" ry="18"/>
<text text-anchor="middle" x="302.54" y="-714.3" font-family="Times,serif" font-size="14.00">PROGRAM</text>
</a>
</g>
</g>
<!-- ListNode_917142466 -->
<g id="node2" class="node"><title>ListNode_917142466</title>
<g id="a_node2"><a xlink:title="Just node">
<ellipse fill="none" stroke="black" cx="268.54" cy="-668" rx="27" ry="18"/>
<text text-anchor="middle" x="268.54" y="-664.3" font-family="Times,serif" font-size="14.00">LST</text>
</a>
</g>
</g>
<!-- ProgramNode_292938459&#45;&gt;ListNode_917142466 -->
<g id="edge1" class="edge"><title>ProgramNode_292938459&#45;&gt;ListNode_917142466</title>
<path fill="none" stroke="black" d="M290.649,-700.212C288.961,-697.829 287.2,-695.343 285.44,-692.858"/>
<polygon fill="black" stroke="black" points="288.207,-690.709 279.57,-684.572 282.495,-694.755 288.207,-690.709"/>
</g>
<!-- null6283307 -->
<g id="node33" class="node"><title>null6283307</title>
<ellipse fill="black" stroke="black" cx="337.54" cy="-668" rx="1.8" ry="1.8"/>
</g>
<!-- ProgramNode_292938459&#45;&gt;null6283307 -->
<g id="edge32" class="edge"><title>ProgramNode_292938459&#45;&gt;null6283307</title>
<path fill="none" stroke="black" d="M314.782,-700.212C320.163,-692.831 326.276,-684.448 330.811,-678.229"/>
<polygon fill="black" stroke="black" points="333.913,-679.916 336.977,-669.773 328.257,-675.791 333.913,-679.916"/>
</g>
<!-- ListNode_1993134103 -->
<g id="node3" class="node"><title>ListNode_1993134103</title>
<g id="a_node3"><a xlink:title="Just node">
<ellipse fill="none" stroke="black" cx="234.54" cy="-618" rx="27" ry="18"/>
<text text-anchor="middle" x="234.54" y="-614.3" font-family="Times,serif" font-size="14.00">LST</text>
</a>
</g>
</g>
<!-- ListNode_917142466&#45;&gt;ListNode_1993134103 -->
<g id="edge2" class="edge"><title>ListNode_917142466&#45;&gt;ListNode_1993134103</title>
<path fill="none" stroke="black" d="M257.408,-651.283C255.51,-648.604 253.5,-645.767 251.492,-642.932"/>
<polygon fill="black" stroke="black" points="254.219,-640.726 245.582,-634.588 248.506,-644.772 254.219,-640.726"/>
</g>
<!-- null9437028 -->
<g id="node32" class="node"><title>null9437028</title>
<ellipse fill="black" stroke="black" cx="303.54" cy="-618" rx="1.8" ry="1.8"/>
</g>
<!-- ListNode_917142466&#45;&gt;null9437028 -->
<g id="edge31" class="edge"><title>ListNode_917142466&#45;&gt;null9437028</title>
<path fill="none" stroke="black" d="M279.807,-651.548C285.403,-643.875 291.976,-634.86 296.784,-628.266"/>
<polygon fill="black" stroke="black" points="299.877,-629.965 302.94,-619.823 294.221,-625.841 299.877,-629.965"/>
</g>
<!-- ListNode_405662939 -->
<g id="node4" class="node"><title>ListNode_405662939</title>
<g id="a_node4"><a xlink:title="Just node">
<ellipse fill="none" stroke="black" cx="151.54" cy="-568" rx="27" ry="18"/>
<text text-anchor="middle" x="151.54" y="-564.3" font-family="Times,serif" font-size="14.00">LST</text>
</a>
</g>
</g>
<!-- ListNode_1993134103&#45;&gt;ListNode_405662939 -->
<g id="edge3" class="edge"><title>ListNode_1993134103&#45;&gt;ListNode_405662939</title>
<path fill="none" stroke="black" d="M214.871,-605.625C204.506,-599.631 191.602,-592.168 180.152,-585.546"/>
<polygon fill="black" stroke="black" points="181.766,-582.436 171.357,-580.46 178.261,-588.496 181.766,-582.436"/>
</g>
<!-- FuncNode_653305407 -->
<g id="node5" class="node"><title>FuncNode_653305407</title>
<g id="a_node5"><a xlink:title="Just node">
<ellipse fill="none" stroke="black" cx="318.54" cy="-568" rx="75.2868" ry="18"/>
<text text-anchor="middle" x="318.54" y="-564.3" font-family="Times,serif" font-size="14.00">FUNCTION main</text>
</a>
</g>
</g>
<!-- ListNode_1993134103&#45;&gt;FuncNode_653305407 -->
<g id="edge4" class="edge"><title>ListNode_1993134103&#45;&gt;FuncNode_653305407</title>
<path fill="none" stroke="black" d="M254.447,-605.625C262.683,-600.919 272.503,-595.307 281.951,-589.908"/>
<polygon fill="black" stroke="black" points="283.886,-592.834 290.832,-584.833 280.413,-586.756 283.886,-592.834"/>
</g>
<!-- null7813676 -->
<g id="node6" class="node"><title>null7813676</title>
<ellipse fill="black" stroke="black" cx="283.54" cy="-518" rx="1.8" ry="1.8"/>
</g>
<!-- FuncNode_653305407&#45;&gt;null7813676 -->
<g id="edge5" class="edge"><title>FuncNode_653305407&#45;&gt;null7813676</title>
<path fill="none" stroke="black" d="M306.299,-550.212C300.918,-542.831 294.805,-534.448 290.27,-528.229"/>
<polygon fill="black" stroke="black" points="292.824,-525.791 284.104,-519.773 287.168,-529.916 292.824,-525.791"/>
</g>
<!-- ListNode_1404928347 -->
<g id="node7" class="node"><title>ListNode_1404928347</title>
<g id="a_node7"><a xlink:title="Just node">
<ellipse fill="none" stroke="black" cx="352.54" cy="-518" rx="27" ry="18"/>
<text text-anchor="middle" x="352.54" y="-514.3" font-family="Times,serif" font-size="14.00">LST</text>
</a>
</g>
</g>
<!-- FuncNode_653305407&#45;&gt;ListNode_1404928347 -->
<g id="edge6" class="edge"><title>FuncNode_653305407&#45;&gt;ListNode_1404928347</title>
<path fill="none" stroke="black" d="M330.432,-550.212C332.12,-547.829 333.881,-545.343 335.641,-542.858"/>
<polygon fill="black" stroke="black" points="338.586,-544.755 341.51,-534.572 332.874,-540.709 338.586,-544.755"/>
</g>
<!-- ListNode_604107971 -->
<g id="node8" class="node"><title>ListNode_604107971</title>
<g id="a_node8"><a xlink:title="Just node">
<ellipse fill="none" stroke="black" cx="232.54" cy="-468" rx="27" ry="18"/>
<text text-anchor="middle" x="232.54" y="-464.3" font-family="Times,serif" font-size="14.00">LST</text>
</a>
</g>
</g>
<!-- ListNode_1404928347&#45;&gt;ListNode_604107971 -->
<g id="edge7" class="edge"><title>ListNode_1404928347&#45;&gt;ListNode_604107971</title>
<path fill="none" stroke="black" d="M329.969,-507.972C311.448,-500.563 285.005,-489.986 264.34,-481.72"/>
<polygon fill="black" stroke="black" points="265.595,-478.452 255.01,-477.988 262.995,-484.952 265.595,-478.452"/>
</g>
<!-- ReturnNode_1617791695 -->
<g id="node27" class="node"><title>ReturnNode_1617791695</title>
<g id="a_node27"><a xlink:title="Just node">
<ellipse fill="none" stroke="black" cx="472.54" cy="-468" rx="46.2923" ry="18"/>
<text text-anchor="middle" x="472.54" y="-464.3" font-family="Times,serif" font-size="14.00">RETURN</text>
</a>
</g>
</g>
<!-- ListNode_1404928347&#45;&gt;ReturnNode_1617791695 -->
<g id="edge26" class="edge"><title>ListNode_1404928347&#45;&gt;ReturnNode_1617791695</title>
<path fill="none" stroke="black" d="M375.112,-507.972C391.142,-501.56 413.106,-492.774 432.123,-485.167"/>
<polygon fill="black" stroke="black" points="433.482,-488.393 441.467,-481.429 430.882,-481.894 433.482,-488.393"/>
</g>
<!-- ListNode_123961122 -->
<g id="node9" class="node"><title>ListNode_123961122</title>
<g id="a_node9"><a xlink:title="Just node">
<ellipse fill="none" stroke="black" cx="52.5405" cy="-418" rx="27" ry="18"/>
<text text-anchor="middle" x="52.5405" y="-414.3" font-family="Times,serif" font-size="14.00">LST</text>
</a>
</g>
</g>
<!-- ListNode_604107971&#45;&gt;ListNode_123961122 -->
<g id="edge8" class="edge"><title>ListNode_604107971&#45;&gt;ListNode_123961122</title>
<path fill="none" stroke="black" d="M207.89,-460.426C176.604,-452.084 122.462,-437.646 87.0733,-428.209"/>
<polygon fill="black" stroke="black" points="87.7459,-424.766 77.1817,-425.571 85.9422,-431.53 87.7459,-424.766"/>
</g>
<!-- StatementEndNode_1227229563 -->
<g id="node10" class="node"><title>StatementEndNode_1227229563</title>
<g id="a_node10"><a xlink:title="Just node">
<ellipse fill="none" stroke="black" cx="232.54" cy="-418" rx="84.485" ry="18"/>
<text text-anchor="middle" x="232.54" y="-414.3" font-family="Times,serif" font-size="14.00">STATEMENT&#45;END</text>
</a>
</g>
</g>
<!-- ListNode_604107971&#45;&gt;StatementEndNode_1227229563 -->
<g id="edge9" class="edge"><title>ListNode_604107971&#45;&gt;StatementEndNode_1227229563</title>
<path fill="none" stroke="black" d="M232.54,-449.942C232.54,-448.669 232.54,-447.367 232.54,-446.053"/>
<polygon fill="black" stroke="black" points="236.041,-446.003 232.54,-436.003 229.041,-446.003 236.041,-446.003"/>
</g>
<!-- BinNode_1982791261 -->
<g id="node11" class="node"><title>BinNode_1982791261</title>
<g id="a_node11"><a xlink:title="Just node">
<ellipse fill="none" stroke="black" cx="185.54" cy="-368" rx="40.0939" ry="18"/>
<text text-anchor="middle" x="185.54" y="-364.3" font-family="Times,serif" font-size="14.00">SET (=)</text>
</a>
</g>
</g>
<!-- StatementEndNode_1227229563&#45;&gt;BinNode_1982791261 -->
<g id="edge10" class="edge"><title>StatementEndNode_1227229563&#45;&gt;BinNode_1982791261</title>
<path fill="none" stroke="black" d="M216.102,-400.212C213.515,-397.569 210.801,-394.798 208.104,-392.044"/>
<polygon fill="black" stroke="black" points="210.598,-389.588 201.101,-384.892 205.597,-394.485 210.598,-389.588"/>
</g>
<!-- null7328846 -->
<g id="node26" class="node"><title>null7328846</title>
<ellipse fill="black" stroke="black" cx="271.54" cy="-368" rx="1.8" ry="1.8"/>
</g>
<!-- StatementEndNode_1227229563&#45;&gt;null7328846 -->
<g id="edge25" class="edge"><title>StatementEndNode_1227229563&#45;&gt;null7328846</title>
<path fill="none" stroke="black" d="M246.181,-400.212C252.331,-392.642 259.339,-384.017 264.427,-377.755"/>
<polygon fill="black" stroke="black" points="267.323,-379.742 270.912,-369.773 261.89,-375.327 267.323,-379.742"/>
</g>
<!-- VarDeclNode_1562557367 -->
<g id="node12" class="node"><title>VarDeclNode_1562557367</title>
<g id="a_node12"><a xlink:title="Just node">
<ellipse fill="none" stroke="black" cx="51.5405" cy="-318" rx="38.1938" ry="18"/>
<text text-anchor="middle" x="51.5405" y="-314.3" font-family="Times,serif" font-size="14.00">VAR: x</text>
</a>
</g>
</g>
<!-- BinNode_1982791261&#45;&gt;VarDeclNode_1562557367 -->
<g id="edge11" class="edge"><title>BinNode_1982791261&#45;&gt;VarDeclNode_1562557367</title>
<path fill="none" stroke="black" d="M155.134,-356.108C136.155,-349.31 111.525,-340.487 91.0437,-333.15"/>
<polygon fill="black" stroke="black" points="91.9598,-329.761 81.3652,-329.683 89.5991,-336.351 91.9598,-329.761"/>
</g>
<!-- InitListNode_1101288798 -->
<g id="node13" class="node"><title>InitListNode_1101288798</title>
<g id="a_node13"><a xlink:title="Just node">
<ellipse fill="none" stroke="black" cx="319.54" cy="-318" rx="138.375" ry="18"/>
<text text-anchor="middle" x="319.54" y="-314.3" font-family="Times,serif" font-size="14.00">com.gs.ast.InitListNode@41a4555e</text>
</a>
</g>
</g>
<!-- BinNode_1982791261&#45;&gt;InitListNode_1101288798 -->
<g id="edge12" class="edge"><title>BinNode_1982791261&#45;&gt;InitListNode_1101288798</title>
<path fill="none" stroke="black" d="M215.947,-356.108C230.471,-350.906 248.304,-344.518 265.054,-338.517"/>
<polygon fill="black" stroke="black" points="266.525,-341.708 274.759,-335.041 264.164,-335.119 266.525,-341.708"/>
</g>
<!-- null497785 -->
<g id="node14" class="node"><title>null497785</title>
<ellipse fill="black" stroke="black" cx="284.54" cy="-268" rx="1.8" ry="1.8"/>
</g>
<!-- InitListNode_1101288798&#45;&gt;null497785 -->
<g id="edge13" class="edge"><title>InitListNode_1101288798&#45;&gt;null497785</title>
<path fill="none" stroke="black" d="M307.102,-299.942C301.738,-292.585 295.68,-284.277 291.193,-278.123"/>
<polygon fill="black" stroke="black" points="293.817,-275.782 285.097,-269.764 288.161,-279.906 293.817,-275.782"/>
</g>
<!-- ListNode_942731712 -->
<g id="node15" class="node"><title>ListNode_942731712</title>
<g id="a_node15"><a xlink:title="Just node">
<ellipse fill="none" stroke="black" cx="353.54" cy="-268" rx="27" ry="18"/>
<text text-anchor="middle" x="353.54" y="-264.3" font-family="Times,serif" font-size="14.00">LST</text>
</a>
</g>
</g>
<!-- InitListNode_1101288798&#45;&gt;ListNode_942731712 -->
<g id="edge14" class="edge"><title>InitListNode_1101288798&#45;&gt;ListNode_942731712</title>
<path fill="none" stroke="black" d="M331.623,-299.942C333.16,-297.773 334.755,-295.521 336.352,-293.266"/>
<polygon fill="black" stroke="black" points="339.481,-294.904 342.405,-284.721 333.768,-290.858 339.481,-294.904"/>
</g>
<!-- PushConstNode_971848845 -->
<g id="node16" class="node"><title>PushConstNode_971848845</title>
<g id="a_node16"><a xlink:title="Just node">
<ellipse fill="none" stroke="black" cx="274.54" cy="-218" rx="68.7879" ry="18"/>
<text text-anchor="middle" x="274.54" y="-214.3" font-family="Times,serif" font-size="14.00">PUSHCONST 5</text>
</a>
</g>
</g>
<!-- ListNode_942731712&#45;&gt;PushConstNode_971848845 -->
<g id="edge15" class="edge"><title>ListNode_942731712&#45;&gt;PushConstNode_971848845</title>
<path fill="none" stroke="black" d="M334.012,-255.135C326.484,-250.561 317.642,-245.188 309.112,-240.005"/>
<polygon fill="black" stroke="black" points="310.766,-236.915 300.403,-234.714 307.132,-242.898 310.766,-236.915"/>
</g>
<!-- ListNode_1910163204 -->
<g id="node17" class="node"><title>ListNode_1910163204</title>
<g id="a_node17"><a xlink:title="Just node">
<ellipse fill="none" stroke="black" cx="433.54" cy="-218" rx="27" ry="18"/>
<text text-anchor="middle" x="433.54" y="-214.3" font-family="Times,serif" font-size="14.00">LST</text>
</a>
</g>
</g>
<!-- ListNode_942731712&#45;&gt;ListNode_1910163204 -->
<g id="edge16" class="edge"><title>ListNode_942731712&#45;&gt;ListNode_1910163204</title>
<path fill="none" stroke="black" d="M372.906,-255.381C382.661,-249.528 394.669,-242.323 405.419,-235.873"/>
<polygon fill="black" stroke="black" points="407.302,-238.825 414.076,-230.679 403.7,-232.823 407.302,-238.825"/>
</g>
<!-- PushConstNode_305623748 -->
<g id="node18" class="node"><title>PushConstNode_305623748</title>
<g id="a_node18"><a xlink:title="Just node">
<ellipse fill="none" stroke="black" cx="353.54" cy="-168" rx="68.7879" ry="18"/>
<text text-anchor="middle" x="353.54" y="-164.3" font-family="Times,serif" font-size="14.00">PUSHCONST 4</text>
</a>
</g>
</g>
<!-- ListNode_1910163204&#45;&gt;PushConstNode_305623748 -->
<g id="edge17" class="edge"><title>ListNode_1910163204&#45;&gt;PushConstNode_305623748</title>
<path fill="none" stroke="black" d="M414.175,-205.381C406.406,-200.719 397.207,-195.2 388.353,-189.888"/>
<polygon fill="black" stroke="black" points="390.056,-186.828 379.68,-184.684 386.454,-192.83 390.056,-186.828"/>
</g>
<!-- ListNode_758529971 -->
<g id="node19" class="node"><title>ListNode_758529971</title>
<g id="a_node19"><a xlink:title="Just node">
<ellipse fill="none" stroke="black" cx="512.54" cy="-168" rx="27" ry="18"/>
<text text-anchor="middle" x="512.54" y="-164.3" font-family="Times,serif" font-size="14.00">LST</text>
</a>
</g>
</g>
<!-- ListNode_1910163204&#45;&gt;ListNode_758529971 -->
<g id="edge18" class="edge"><title>ListNode_1910163204&#45;&gt;ListNode_758529971</title>
<path fill="none" stroke="black" d="M453.069,-205.135C462.54,-199.38 474.089,-192.363 484.483,-186.048"/>
<polygon fill="black" stroke="black" points="486.508,-188.912 493.237,-180.729 482.873,-182.93 486.508,-188.912"/>
</g>
<!-- PushConstNode_2104457164 -->
<g id="node20" class="node"><title>PushConstNode_2104457164</title>
<g id="a_node20"><a xlink:title="Just node">
<ellipse fill="none" stroke="black" cx="433.54" cy="-118" rx="68.7879" ry="18"/>
<text text-anchor="middle" x="433.54" y="-114.3" font-family="Times,serif" font-size="14.00">PUSHCONST 3</text>
</a>
</g>
</g>
<!-- ListNode_758529971&#45;&gt;PushConstNode_2104457164 -->
<g id="edge19" class="edge"><title>ListNode_758529971&#45;&gt;PushConstNode_2104457164</title>
<path fill="none" stroke="black" d="M493.012,-155.135C485.484,-150.561 476.642,-145.188 468.112,-140.005"/>
<polygon fill="black" stroke="black" points="469.766,-136.915 459.403,-134.714 466.132,-142.898 469.766,-136.915"/>
</g>
<!-- ListNode_1521118594 -->
<g id="node21" class="node"><title>ListNode_1521118594</title>
<g id="a_node21"><a xlink:title="Just node">
<ellipse fill="none" stroke="black" cx="592.54" cy="-118" rx="27" ry="18"/>
<text text-anchor="middle" x="592.54" y="-114.3" font-family="Times,serif" font-size="14.00">LST</text>
</a>
</g>
</g>
<!-- ListNode_758529971&#45;&gt;ListNode_1521118594 -->
<g id="edge20" class="edge"><title>ListNode_758529971&#45;&gt;ListNode_1521118594</title>
<path fill="none" stroke="black" d="M531.906,-155.381C541.661,-149.528 553.669,-142.323 564.419,-135.873"/>
<polygon fill="black" stroke="black" points="566.302,-138.825 573.076,-130.679 562.7,-132.823 566.302,-138.825"/>
</g>
<!-- PushConstNode_1940030785 -->
<g id="node22" class="node"><title>PushConstNode_1940030785</title>
<g id="a_node22"><a xlink:title="Just node">
<ellipse fill="none" stroke="black" cx="512.54" cy="-68" rx="68.7879" ry="18"/>
<text text-anchor="middle" x="512.54" y="-64.3" font-family="Times,serif" font-size="14.00">PUSHCONST 2</text>
</a>
</g>
</g>
<!-- ListNode_1521118594&#45;&gt;PushConstNode_1940030785 -->
<g id="edge21" class="edge"><title>ListNode_1521118594&#45;&gt;PushConstNode_1940030785</title>
<path fill="none" stroke="black" d="M573.175,-105.381C565.406,-100.719 556.207,-95.2 547.353,-89.8877"/>
<polygon fill="black" stroke="black" points="549.056,-86.8276 538.68,-84.6838 545.454,-92.83 549.056,-86.8276"/>
</g>
<!-- ListNode_1869997857 -->
<g id="node23" class="node"><title>ListNode_1869997857</title>
<g id="a_node23"><a xlink:title="Just node">
<ellipse fill="none" stroke="black" cx="671.54" cy="-68" rx="27" ry="18"/>
<text text-anchor="middle" x="671.54" y="-64.3" font-family="Times,serif" font-size="14.00">LST</text>
</a>
</g>
</g>
<!-- ListNode_1521118594&#45;&gt;ListNode_1869997857 -->
<g id="edge22" class="edge"><title>ListNode_1521118594&#45;&gt;ListNode_1869997857</title>
<path fill="none" stroke="black" d="M612.069,-105.135C621.54,-99.3803 633.089,-92.3626 643.483,-86.0478"/>
<polygon fill="black" stroke="black" points="645.508,-88.9125 652.237,-80.7287 641.873,-82.9302 645.508,-88.9125"/>
</g>
<!-- PushConstNode_1763847188 -->
<g id="node24" class="node"><title>PushConstNode_1763847188</title>
<g id="a_node24"><a xlink:title="Just node">
<ellipse fill="none" stroke="black" cx="608.54" cy="-18" rx="68.7879" ry="18"/>
<text text-anchor="middle" x="608.54" y="-14.3" font-family="Times,serif" font-size="14.00">PUSHCONST 1</text>
</a>
</g>
</g>
<!-- ListNode_1869997857&#45;&gt;PushConstNode_1763847188 -->
<g id="edge23" class="edge"><title>ListNode_1869997857&#45;&gt;PushConstNode_1763847188</title>
<path fill="none" stroke="black" d="M654.325,-53.8838C649.234,-50.0047 643.511,-45.6443 637.88,-41.3543"/>
<polygon fill="black" stroke="black" points="639.857,-38.4601 629.782,-35.1837 635.615,-44.0282 639.857,-38.4601"/>
</g>
<!-- null2215536 -->
<g id="node25" class="node"><title>null2215536</title>
<ellipse fill="black" stroke="black" cx="733.54" cy="-18" rx="1.8" ry="1.8"/>
</g>
<!-- ListNode_1869997857&#45;&gt;null2215536 -->
<g id="edge24" class="edge"><title>ListNode_1869997857&#45;&gt;null2215536</title>
<path fill="none" stroke="black" d="M688.482,-53.8838C700.027,-44.9458 714.872,-33.4528 724.3,-26.1537"/>
<polygon fill="black" stroke="black" points="726.593,-28.8053 732.357,-19.916 722.307,-23.2702 726.593,-28.8053"/>
</g>
<!-- BinNode_125993742 -->
<g id="node28" class="node"><title>BinNode_125993742</title>
<g id="a_node28"><a xlink:title="Just node">
<ellipse fill="none" stroke="black" cx="472.54" cy="-418" rx="71.4873" ry="18"/>
<text text-anchor="middle" x="472.54" y="-414.3" font-family="Times,serif" font-size="14.00">SUBSCRIPT ([])</text>
</a>
</g>
</g>
<!-- ReturnNode_1617791695&#45;&gt;BinNode_125993742 -->
<g id="edge27" class="edge"><title>ReturnNode_1617791695&#45;&gt;BinNode_125993742</title>
<path fill="none" stroke="black" d="M472.54,-449.942C472.54,-448.669 472.54,-447.367 472.54,-446.053"/>
<polygon fill="black" stroke="black" points="476.041,-446.003 472.54,-436.003 469.041,-446.003 476.041,-446.003"/>
</g>
<!-- null9536569 -->
<g id="node31" class="node"><title>null9536569</title>
<ellipse fill="black" stroke="black" cx="600.54" cy="-418" rx="1.8" ry="1.8"/>
</g>
<!-- ReturnNode_1617791695&#45;&gt;null9536569 -->
<g id="edge30" class="edge"><title>ReturnNode_1617791695&#45;&gt;null9536569</title>
<path fill="none" stroke="black" d="M504.51,-455.011C532.292,-444.593 570.924,-430.106 589.586,-423.108"/>
<polygon fill="black" stroke="black" points="590.938,-426.339 599.073,-419.55 588.48,-419.785 590.938,-426.339"/>
</g>
<!-- VarNode_1192108080 -->
<g id="node29" class="node"><title>VarNode_1192108080</title>
<g id="a_node29"><a xlink:title="Just node">
<ellipse fill="none" stroke="black" cx="433.54" cy="-368" rx="38.1938" ry="18"/>
<text text-anchor="middle" x="433.54" y="-364.3" font-family="Times,serif" font-size="14.00">VAR: x</text>
</a>
</g>
</g>
<!-- BinNode_125993742&#45;&gt;VarNode_1192108080 -->
<g id="edge28" class="edge"><title>BinNode_125993742&#45;&gt;VarNode_1192108080</title>
<path fill="none" stroke="black" d="M458.9,-400.212C457.047,-397.931 455.116,-395.554 453.183,-393.175"/>
<polygon fill="black" stroke="black" points="455.736,-390.767 446.713,-385.213 450.303,-395.181 455.736,-390.767"/>
</g>
<!-- PushConstNode_1068824137 -->
<g id="node30" class="node"><title>PushConstNode_1068824137</title>
<g id="a_node30"><a xlink:title="Just node">
<ellipse fill="none" stroke="black" cx="607.54" cy="-368" rx="68.7879" ry="18"/>
<text text-anchor="middle" x="607.54" y="-364.3" font-family="Times,serif" font-size="14.00">PUSHCONST 3</text>
</a>
</g>
</g>
<!-- BinNode_125993742&#45;&gt;PushConstNode_1068824137 -->
<g id="edge29" class="edge"><title>BinNode_125993742&#45;&gt;PushConstNode_1068824137</title>
<path fill="none" stroke="black" d="M512.315,-402.858C526.861,-397.686 543.487,-391.774 558.732,-386.354"/>
<polygon fill="black" stroke="black" points="560.266,-389.523 568.516,-382.876 557.921,-382.928 560.266,-389.523"/>
</g>
</g>
</svg>
